<?xml version="1.0" encoding="UTF-8" standalone="no"?>
<!-- Created with Inkscape (http://www.inkscape.org/) -->
<svg
   xmlns:svg="http://www.w3.org/2000/svg"
   xmlns="http://www.w3.org/2000/svg"
   version="1.0"
   width="744.09448"
   height="403.22833"
   id="svg3633">
  <defs
     id="defs3635" />
  <g
     transform="translate(-649.89646,-406.26802)"
     id="layer1">
    <g
       transform="translate(17.716521,17.668446)"
       id="g20076">
      <path
         d="M 1129.2583,547.45529 C 1124.8463,544.21108 1117.8387,542.13484 1111.0909,542.26452 C 1103.6941,542.39431 1096.6866,544.73012 1091.7554,548.62314 L 1091.7554,502.16634 L 1068.7865,502.16634 L 1068.7865,653.73504 L 1091.7554,653.73504 L 1091.7554,574.57676 C 1091.7554,569.12653 1096.427,563.02737 1104.9918,562.63812 C 1108.755,562.50834 1114.0755,564.19533 1116.8007,568.21814 C 1119.6555,572.37063 1119.5257,578.08043 1119.5257,584.17958 L 1119.3959,653.73504 L 1142.3648,653.73504 L 1142.3648,583.40098 C 1142.3648,562.63812 1139.7695,555.24133 1129.2583,547.45529"
         style="fill:#0078c1;fill-rule:nonzero;stroke:none"
         id="path19828" />
      <path
         d="M 942.39286,599.4921 C 942.39286,614.28568 941.87372,618.43817 941.74404,619.73592 C 940.96543,628.04099 937.46166,636.73543 927.85884,636.73543 C 918.3858,636.73543 914.49278,627.39217 914.10343,619.34656 C 913.97375,619.34656 913.45461,614.28568 913.45461,599.4921 C 913.45461,584.69861 913.97375,578.46978 914.10343,578.46978 C 914.10343,570.03481 918.51559,561.72973 927.85884,561.72973 C 937.33188,561.72973 941.61425,570.03481 941.74404,578.34 C 941.74404,578.46978 942.39286,584.69861 942.39286,599.4921 z M 964.58313,581.5842 C 961.33893,549.27206 942.91189,542.26452 927.85884,542.26452 C 906.44717,542.26452 893.47036,555.89015 891.13455,581.5842 C 890.87508,583.66044 890.61551,587.42368 890.48573,599.4921 C 890.35594,608.31632 891.00487,615.58332 891.13455,617.4001 C 892.56208,641.40705 906.31738,656.07085 927.85884,656.07085 C 949.4003,656.07085 963.15571,641.14759 964.71292,617.4001 C 964.8426,615.71311 965.23195,608.31632 965.23195,599.4921 C 965.23195,595.46929 964.97238,584.69861 964.58313,581.5842"
         style="fill:#0078c1;fill-rule:nonzero;stroke:none"
         id="path19830" />
      <path
         d="M 1180.7761,585.86647 C 1180.9059,580.80559 1180.9059,579.76742 1181.0357,578.34 C 1181.6845,569.25621 1185.7073,561.72973 1195.0505,561.72973 C 1206.0808,561.59995 1208.6762,572.37063 1209.0654,578.34 C 1209.325,581.5842 1209.4548,583.66044 1209.4548,585.86647 L 1180.7761,585.86647 z M 1209.1952,616.23214 C 1209.1952,616.23214 1209.1952,617.91914 1208.9356,619.99538 C 1208.2868,625.31593 1206.2106,636.73543 1195.0505,636.73543 C 1185.4477,636.73543 1181.8143,628.04099 1181.1655,619.47635 C 1181.0357,617.01075 1180.6463,614.28568 1180.6463,604.94233 L 1231.9046,604.94233 C 1231.9046,604.94233 1231.9046,597.28607 1231.7748,592.74423 C 1231.7748,590.92745 1231.6451,587.94282 1231.2557,581.5842 C 1230.4771,571.85159 1226.8436,561.2107 1221.2636,554.46273 C 1214.905,546.41711 1205.8212,542.26452 1195.0505,542.26452 C 1174.2877,542.26452 1161.311,555.76036 1158.8454,581.5842 C 1158.5858,583.92001 1158.1965,587.16421 1158.1965,599.4921 C 1158.1965,608.31632 1158.7156,615.71311 1158.8454,617.4001 C 1160.143,641.0178 1174.1579,656.07085 1195.0505,656.07085 C 1215.8134,656.07085 1229.6985,641.40705 1231.2557,616.23214 L 1209.1952,616.23214"
         style="fill:#0078c1;fill-rule:nonzero;stroke:none"
         id="path19832" />
      <path
         d="M 817.81585,424.82484 L 1191.2873,424.82484 L 1334.0318,591.96562 L 1191.2873,756.77059 L 817.81585,756.77059 L 674.42255,591.44648 L 817.81585,424.82484 z M 1200.2412,406.26802 L 808.73206,406.26802 L 649.89646,590.79767 L 808.86185,774.15946 L 1200.2412,774.15946 L 1358.5579,591.44648 L 1200.2412,406.26802"
         style="fill:#0078c1;fill-rule:nonzero;stroke:none"
         id="path19834" />
      <path
         d="M 822.48747,522.79941 L 833.25815,522.79941 C 845.067,522.79941 851.55541,529.02825 851.81498,540.18828 C 851.81498,541.09667 851.94476,542.00506 851.94476,543.69205 C 851.94476,545.76829 851.94476,546.41711 851.81498,547.3255 C 851.16616,553.94369 848.18152,565.49297 834.42611,565.49297 L 822.48747,565.49297 L 822.48747,522.79941 z M 876.8601,644.262 C 876.8601,644.262 874.52429,607.14846 874.52429,607.14846 C 873.48622,590.5382 869.20384,580.67581 860.50941,575.61483 C 866.73824,571.85159 874.78386,562.63812 874.65407,543.30269 C 874.65407,513.97519 856.35682,503.59377 834.81536,503.3343 L 799.77816,503.3343 L 799.77816,653.73504 L 822.35769,653.73504 L 822.48747,584.95818 L 835.07493,584.95818 C 842.34194,584.95818 850.51734,591.3168 851.81498,609.2247 L 854.15079,644.39179 C 854.41036,649.45267 855.31875,653.73504 855.31875,653.73504 L 878.02806,653.73504 C 878.02806,653.73504 876.98988,649.58245 876.8601,644.262"
         style="fill:#0078c1;fill-rule:nonzero;stroke:none"
         id="path19836" />
      <path
         d="M 1031.673,615.19397 C 1031.673,616.88096 1031.5432,618.30849 1031.4134,619.34656 C 1030.7646,627.78153 1027.9098,636.73543 1017.5283,636.73543 C 1008.0553,636.73543 1004.2921,627.00292 1003.5135,619.8657 C 1003.1241,615.58332 1003.2539,612.20934 1003.1241,599.4921 C 1002.9943,584.69861 1003.5135,580.80559 1003.7729,578.46978 C 1004.5515,568.99674 1008.1851,561.72973 1017.5283,561.72973 C 1027.2609,561.59995 1031.2837,570.03481 1031.4134,578.34 C 1031.4134,578.46978 1031.673,580.41624 1031.8028,584.8284 L 1054.5121,584.8284 C 1054.5121,583.27119 1054.3823,581.97345 1054.3823,581.32463 C 1051.787,549.92088 1032.5814,542.26452 1017.5283,542.26452 C 996.11666,542.26452 983.13985,555.89015 980.80404,581.5842 C 980.54458,583.66044 980.28501,587.42368 980.15522,599.4921 C 980.02544,608.31632 980.67426,615.58332 980.80404,617.4001 C 982.23147,641.40705 995.98688,656.07085 1017.5283,656.07085 C 1039.8484,656.20064 1052.1763,642.57501 1054.3823,617.4001 C 1054.3823,616.49171 1054.5121,615.84289 1054.5121,615.19397 L 1031.673,615.19397"
         style="fill:#0078c1;fill-rule:nonzero;stroke:none"
         id="path19838" />
    </g>
  </g>
</svg>
